<?xml version="1.0" encoding="UTF-8"?>
<svg version="1.1" xmlns="http://www.w3.org/2000/svg" width="512" height="512">
<path d="M0 0 C168.96 0 337.92 0 512 0 C512 168.96 512 337.92 512 512 C343.04 512 174.08 512 0 512 C0 343.04 0 174.08 0 0 Z " fill="#F4C417" transform="translate(0,0)"/>
<path d="M0 0 C16.5 0 33 0 50 0 C53.35539422 20.97121387 56.40499552 41.92301703 59 63 C59.33 63 59.66 63 60 63 C62.72712779 42.00725427 65.38577753 21.00714483 68 0 C84.5 0 101 0 118 0 C118 48.18 118 96.36 118 146 C107.11 146 96.22 146 85 146 C84.67 115.64 84.34 85.28 84 54 C82.68 65.22 81.36 76.44 80 88 C78 101.6875 78 101.6875 77.015625 108.125 C75.80912274 116.13049733 74.77518408 124.15716025 73.75 132.1875 C73.61658203 133.23253189 73.61658203 133.23253189 73.48046875 134.29867554 C72.98344176 138.19867986 72.49118586 142.09925271 72 146 C63.75 146 55.5 146 47 146 C46.74605469 143.95941406 46.49210937 141.91882813 46.23046875 139.81640625 C45.97325972 137.7738778 45.71459801 135.73153799 45.45581055 133.68920898 C45.28080064 132.30202853 45.10722976 130.91466553 44.93530273 129.52709961 C43.6211967 118.933324 41.85851398 108.53157919 40 98 C38.35 85.46 36.7 72.92 35 60 C34.67 88.38 34.34 116.76 34 146 C22.78 146 11.56 146 0 146 C0 97.82 0 49.64 0 0 Z " fill="#030200" transform="translate(123,180)"/>
<path d="M0 0 C73.36931818 0 73.36931818 0 82.203125 8.09765625 C86.87979286 13.04882418 89.10238283 18.49664416 89.15390015 25.27258301 C89.16250061 26.11898346 89.17110107 26.96538391 89.17996216 27.83743286 C89.18422211 28.75797455 89.18848206 29.67851624 89.19287109 30.62695312 C89.20513733 32.09121231 89.20513733 32.09121231 89.21765137 33.58505249 C89.24246972 36.81711217 89.25901598 40.04912789 89.2734375 43.28125 C89.27876118 44.38792526 89.28408485 45.49460052 89.28956985 46.6348114 C89.31629114 52.49709378 89.33566585 58.35935498 89.35009766 64.22167969 C89.36341363 69.05976362 89.39122519 73.89742349 89.43212891 78.73535156 C89.48161131 84.58851627 89.50623842 90.44129756 89.51332474 96.29466248 C89.52001224 98.5176563 89.53516847 100.74064242 89.55921555 102.96351624 C89.81827577 128.36829029 89.81827577 128.36829029 82.03915405 137.23498535 C62.5602099 156.45998892 14.55492188 145 0 145 C0 97.15 0 49.3 0 0 Z " fill="#010100" transform="translate(254,181)"/>
<path d="M0 0 C12.54 0 25.08 0 38 0 C38.33 15.18 38.66 30.36 39 46 C41.31 44.02 43.62 42.04 46 40 C52.90654512 36.16303049 63.57543662 36.84771169 71.08984375 38.8046875 C78.06780659 41.92272945 82.77074947 47.38248313 86.06678772 54.20967102 C87.19084371 57.57062767 87.27548648 60.38213271 87.30639648 63.92651367 C87.31472 64.60368439 87.32304352 65.2808551 87.33161926 65.97854614 C87.35563314 68.20841296 87.36448233 70.43798648 87.37109375 72.66796875 C87.3800694 74.22870465 87.38919141 75.78943972 87.39845276 77.35017395 C87.41492388 80.62092167 87.42263894 83.8915673 87.42553711 87.16235352 C87.43090706 91.33065089 87.46853641 95.49797278 87.51428127 99.6659956 C87.54419704 102.89103086 87.55126385 106.11583582 87.55226326 109.3409977 C87.55643989 110.87624879 87.56877024 112.41150222 87.58978081 113.94661522 C87.71647541 124.0073194 87.11343658 132.39941657 80.05589294 140.12931824 C74.04122679 145.95015463 68.29407795 148.1145076 60 148.375 C51.41673859 148.12667923 45.6079382 145.36894979 39 140 C39 139.34 39 138.68 39 138 C38.34 138 37.68 138 37 138 C36.34 140.64 35.68 143.28 35 146 C23.45 146 11.9 146 0 146 C0 97.82 0 49.64 0 0 Z " fill="#020200" transform="translate(356,180)"/>
<path d="M0 0 C12.54 0 25.08 0 38 0 C38 48.18 38 96.36 38 146 C25.46 146 12.92 146 0 146 C0 97.82 0 49.64 0 0 Z " fill="#040300" transform="translate(72,180)"/>
<path d="M0 0 C8 0 8 0 10.4375 1.875 C13.21853363 5.65720574 13.14821557 8.60164445 13.14526367 13.15258789 C13.15030159 14.25787842 13.15030159 14.25787842 13.15544128 15.38549805 C13.16496908 17.83123445 13.16689587 20.27690242 13.16796875 22.72265625 C13.17118207 24.42459644 13.1745462 26.12653635 13.17805481 27.82847595 C13.18405205 31.40380492 13.1858943 34.97910971 13.18530273 38.55444336 C13.18520154 43.11828759 13.19880705 47.68197476 13.21607494 52.2457819 C13.22724387 55.76585082 13.22922038 59.28588251 13.22869301 62.80596733 C13.22986755 64.48714167 13.23425962 66.16831714 13.24202538 67.84947395 C13.31367783 84.97628305 13.31367783 84.97628305 11 92 C6.98729308 94.94265174 5.07293691 95 0 95 C0 63.65 0 32.3 0 0 Z " fill="#EFC017" transform="translate(292,206)"/>
<path d="M0 0 C3.4375 0.75 3.4375 0.75 5.4375 2.75 C5.69146729 5.21691895 5.69146729 5.21691895 5.69628906 8.36132812 C5.70259338 9.53594604 5.70889771 10.71056396 5.71539307 11.92077637 C5.7113446 13.19473267 5.70729614 14.46868896 5.703125 15.78125 C5.70503845 17.08324341 5.7069519 18.38523682 5.70892334 19.72668457 C5.71187391 22.48401628 5.70757924 25.24121849 5.69824219 27.99853516 C5.68684753 31.53627073 5.69340738 35.07370287 5.70538712 38.61142731 C5.71434394 41.98055934 5.7080764 45.34960934 5.703125 48.71875 C5.70717346 49.9927063 5.71122192 51.2666626 5.71539307 52.57922363 C5.70908875 53.75384155 5.70278442 54.92845947 5.69628906 56.13867188 C5.69390228 57.69515442 5.69390228 57.69515442 5.69146729 59.28308105 C5.4375 61.75 5.4375 61.75 3.4375 63.75 C1.30859375 63.98046875 1.30859375 63.98046875 -1.125 63.9375 C-1.93066406 63.93105469 -2.73632812 63.92460937 -3.56640625 63.91796875 C-5.5625 63.75 -5.5625 63.75 -6.5625 62.75 C-6.67214688 60.85861521 -6.71160404 58.96312567 -6.72363281 57.06860352 C-6.73324036 55.85386856 -6.7428479 54.63913361 -6.75274658 53.3875885 C-6.75759369 52.05136298 -6.76187274 50.71513529 -6.765625 49.37890625 C-6.77137379 48.01749162 -6.77713155 46.65607703 -6.78289795 45.29466248 C-6.79341577 42.43724183 -6.79925341 39.5798494 -6.80273438 36.72241211 C-6.8082232 33.05567499 -6.83225566 29.38930848 -6.86070633 25.72268772 C-6.87930232 22.90975342 -6.88453665 20.09690897 -6.88607025 17.28391838 C-6.88910384 15.93187367 -6.8971561 14.5798308 -6.91025543 13.22784615 C-6.92725184 11.33890201 -6.92360019 9.44980588 -6.91894531 7.56079102 C-6.92259094 6.48459 -6.92623657 5.40838898 -6.92999268 4.29957581 C-6.7480838 3.03753578 -6.7480838 3.03753578 -6.5625 1.75 C-3.5625 -0.25 -3.5625 -0.25 0 0 Z " fill="#F3C317" transform="translate(400.5625,240.25)"/>
</svg>
